<svg width="24" height="24" viewBox="0 0 24 24" fill="none" xmlns="http://www.w3.org/2000/svg">
<g clip-path="url(#clip0_1_4477)">
<path d="M5.08197 11.7739C5.15726 12.8024 5.71947 13.6305 6.41769 13.7447C6.93862 13.8297 7.47169 13.9025 8.01447 13.9025C8.55847 13.9025 9.09154 13.8297 9.61126 13.7447C10.3107 13.6305 10.8741 12.8024 10.947 11.7739C11.0102 10.9975 11.0446 10.219 11.0502 9.44004C11.0502 8.6459 11.0028 7.86511 10.9482 7.10618C10.8729 6.07768 10.3107 5.25075 9.61004 5.1354C9.08305 5.03883 8.54896 4.98603 8.01326 4.97754C7.47047 4.97754 6.9374 5.0504 6.41769 5.1354C5.71826 5.25075 5.15483 6.07768 5.08197 7.10618C5.01879 7.88259 4.98436 8.66108 4.97876 9.44004C4.97876 10.2354 5.02733 11.015 5.08197 11.7739ZM19.9436 13.2748C19.8695 12.2475 19.3061 11.4205 18.6043 11.3064C18.0765 11.2097 17.5416 11.1569 17.005 11.1485C16.4598 11.1485 15.9255 11.2214 15.4046 11.3064C14.704 11.4205 14.1405 12.2475 14.0653 13.2748C14.0025 14.0508 13.9685 14.8289 13.9633 15.6074C13.9633 16.4015 14.0106 17.1811 14.0653 17.94C14.1405 18.9685 14.704 19.7955 15.4046 19.9096C15.9268 19.9946 16.461 20.0675 17.005 20.0675C17.549 20.0675 18.0845 19.9946 18.6043 19.9096C19.3061 19.7955 19.8695 18.9685 19.9448 17.94C19.9995 17.1811 20.0468 16.4015 20.0468 15.6086C20.0468 14.8133 19.9983 14.0337 19.9436 13.2748ZM5.08197 19.2988C5.15726 19.6704 5.71947 19.9691 6.41769 20.0104C6.94926 20.0453 7.48176 20.0644 8.01447 20.0675C8.54719 20.0644 9.07969 20.0453 9.61126 20.0104C10.3107 19.9691 10.8741 19.6704 10.947 19.2988C11.0028 19.0244 11.0502 18.7415 11.0502 18.4549C11.0437 18.1709 11.0095 17.8883 10.9482 17.611C10.8729 17.2394 10.3107 16.9407 9.61126 16.8994C9.07969 16.8645 8.54719 16.8454 8.01447 16.8423C7.48217 16.8454 6.95007 16.8645 6.4189 16.8994C5.71947 16.9407 5.15605 17.2394 5.08319 17.611C5.02066 17.8881 4.98608 18.1708 4.97997 18.4549C4.97997 18.7427 5.02733 19.0244 5.08197 19.2988ZM19.9436 5.74618C19.8695 5.37461 19.3061 5.0759 18.6043 5.03461C18.0719 4.99962 17.5386 4.98059 17.005 4.97754C16.4598 4.97754 15.9255 5.00425 15.4046 5.03461C14.704 5.0759 14.1405 5.37461 14.0653 5.74618C14.0031 6.02338 13.969 6.3061 13.9633 6.59011C13.9633 6.87668 14.0106 7.15961 14.0653 7.43404C14.1405 7.80561 14.704 8.10433 15.4046 8.14561C15.9268 8.17597 16.461 8.20268 17.005 8.20268C17.549 8.20268 18.0845 8.17597 18.6043 8.14561C19.3061 8.10433 19.8695 7.80561 19.9448 7.43282C20.0061 7.15589 20.0402 6.87366 20.0468 6.59011C20.0403 6.30616 20.005 6.02351 19.9436 5.74618Z" stroke="#F4F1EA" stroke-linecap="round" stroke-linejoin="round"/>
</g>
<defs>
<clipPath id="clip0_1_4477">
<rect width="17" height="17" fill="white" transform="translate(4 4)"/>
</clipPath>
</defs>
</svg>
