<svg width="24" height="24" viewBox="0 0 24 24" fill="none" xmlns="http://www.w3.org/2000/svg">
<path fill-rule="evenodd" clip-rule="evenodd" d="M7.50002 4.75C7.50002 4.5315 9.75802 3 12 3C14.242 3 16.5 4.5315 16.5 4.75C16.5 5.53 16.417 5.992 16.347 6.2435C16.3005 6.4085 16.146 6.5 15.9745 6.5H8.02552C7.85402 6.5 7.69952 6.4085 7.65302 6.2435C7.58302 5.992 7.50002 5.53 7.50002 4.75ZM11.25 4.5C11.1174 4.5 10.9902 4.55268 10.8965 4.64645C10.8027 4.74021 10.75 4.86739 10.75 5C10.75 5.13261 10.8027 5.25979 10.8965 5.35355C10.9902 5.44732 11.1174 5.5 11.25 5.5H12.75C12.8826 5.5 13.0098 5.44732 13.1036 5.35355C13.1973 5.25979 13.25 5.13261 13.25 5C13.25 4.86739 13.1973 4.74021 13.1036 4.64645C13.0098 4.55268 12.8826 4.5 12.75 4.5H11.25ZM8.01902 9.609C6.35402 9.094 6.77402 8.174 7.40902 7.5H16.73C17.238 8.149 17.5105 9.0245 15.975 9.5485C15.9917 9.69683 16 9.84733 16 10C15.9998 10.5416 15.8896 11.0776 15.6761 11.5753C15.4625 12.0731 15.1501 12.5223 14.7578 12.8958C14.3655 13.2692 13.9014 13.559 13.3937 13.7478C12.886 13.9365 12.3453 14.0201 11.8043 13.9936C11.2633 13.9671 10.7333 13.831 10.2465 13.5936C9.7597 13.3561 9.32618 13.0223 8.97223 12.6123C8.61829 12.2023 8.35129 11.7247 8.18744 11.2085C8.02359 10.6922 7.96629 10.1481 8.01902 9.609ZM11.864 10C13.185 10 14.209 9.93 14.994 9.808C14.998 9.87133 15 9.93533 15 10C14.9997 10.4004 14.9192 10.7966 14.7633 11.1654C14.6074 11.5342 14.3793 11.868 14.0924 12.1473C13.8054 12.4265 13.4655 12.6455 13.0926 12.7913C12.7198 12.9371 12.3215 13.0068 11.9212 12.9963C11.521 12.9858 11.1269 12.8953 10.7622 12.7301C10.3975 12.5649 10.0696 12.3284 9.7977 12.0345C9.52584 11.7405 9.31555 11.3952 9.17924 11.0187C9.04293 10.6423 8.98335 10.2423 9.00402 9.8425C9.73552 9.9435 10.673 10 11.864 10ZM16.2085 17.3C15.7563 16.5943 15.1338 16.0138 14.3984 15.6119C13.6629 15.2099 12.8381 14.9995 12 15C11.1615 14.9994 10.3364 15.2098 9.60067 15.6119C8.86492 16.0141 8.24224 16.5949 7.79002 17.301C7.62181 17.0428 7.36415 16.8558 7.06652 16.776L6.10052 16.5175C5.78034 16.4317 5.43917 16.4765 5.15206 16.6422C4.86495 16.8079 4.6554 17.0808 4.56952 17.401L4.18152 18.85C4.13902 19.0086 4.12818 19.174 4.14961 19.3367C4.17104 19.4995 4.22432 19.6564 4.30641 19.7986C4.3885 19.9408 4.49779 20.0654 4.62803 20.1653C4.75828 20.2652 4.90694 20.3385 5.06552 20.381L6.03102 20.64C6.19345 20.6835 6.36298 20.6938 6.52948 20.6703C6.69598 20.6467 6.85602 20.5898 7.00002 20.503C7.00042 20.6356 7.05348 20.7626 7.14753 20.8561C7.24158 20.9496 7.36891 21.0019 7.50152 21.0015C7.63413 21.0011 7.76115 20.948 7.85463 20.854C7.94812 20.7599 8.00042 20.6326 8.00002 20.5V20C8.00002 19.8093 8.01302 19.6222 8.03902 19.4385L10.641 20.136C10.7618 20.3945 10.9538 20.6132 11.1945 20.7665C11.4352 20.9197 11.7147 21.0011 12 21.0011C12.2854 21.0011 12.5648 20.9197 12.8055 20.7665C13.0462 20.6132 13.2382 20.3945 13.359 20.136L15.961 19.4385C15.9867 19.6222 15.9997 19.8093 16 20V20.5C15.9994 20.6326 16.0514 20.76 16.1447 20.8543C16.238 20.9485 16.3649 21.0018 16.4975 21.0025C16.6301 21.0032 16.7576 20.9511 16.8518 20.8578C16.946 20.7645 16.9994 20.6376 17 20.505C17.28 20.673 17.626 20.7315 17.9665 20.64L18.9325 20.3815C19.0911 20.339 19.2398 20.2657 19.37 20.1658C19.5003 20.0659 19.6095 19.9413 19.6916 19.7991C19.7737 19.6569 19.827 19.5 19.8484 19.3372C19.8699 19.1745 19.859 19.0091 19.8165 18.8505L19.428 17.4015C19.3421 17.0813 19.1326 16.8084 18.8455 16.6427C18.5584 16.477 18.2172 16.4322 17.897 16.518L16.931 16.7765C16.6341 16.8561 16.3768 17.0428 16.2085 17.3ZM8.30152 18.473C8.57177 17.8199 9.01003 17.25 9.57179 16.8211C10.1336 16.3922 10.7988 16.1196 11.5 16.031V18.0855C11.2758 18.1647 11.0736 18.2961 10.9102 18.4689C10.7468 18.6416 10.6267 18.8507 10.56 19.079L8.30152 18.473ZM15.6985 18.473C15.4283 17.8199 14.99 17.25 14.4282 16.8211C13.8665 16.3922 13.2012 16.1196 12.5 16.031V18.0855C12.952 18.2455 13.305 18.6155 13.44 19.079L15.6985 18.473ZM12 20C12.1326 20 12.2598 19.9473 12.3536 19.8536C12.4473 19.7598 12.5 19.6326 12.5 19.5C12.5 19.3674 12.4473 19.2402 12.3536 19.1464C12.2598 19.0527 12.1326 19 12 19C11.8674 19 11.7402 19.0527 11.6465 19.1464C11.5527 19.2402 11.5 19.3674 11.5 19.5C11.5 19.6326 11.5527 19.7598 11.6465 19.8536C11.7402 19.9473 11.8674 20 12 20Z" fill="#F4F1EA"/>
</svg>
