<svg width="24" height="24" viewBox="0 0 24 24" fill="none" xmlns="http://www.w3.org/2000/svg">
<path d="M17.5 16.5C18.5609 16.5 19.578 16.9217 20.3281 17.6719C21.0783 18.422 21.5 19.4391 21.5 20.5H13.5C13.5 19.4391 13.9217 18.422 14.6719 17.6719C15.422 16.9217 16.4391 16.5 17.5 16.5ZM7 12.5C7.59086 12.5 8.17579 12.6167 8.72168 12.8428C9.26764 13.0689 9.76378 13.4005 10.1816 13.8184C10.5995 14.2362 10.9311 14.7324 11.1572 15.2783C11.3833 15.8242 11.5 16.4091 11.5 17V20.5H2.5V17C2.5 15.8065 2.97445 14.6623 3.81836 13.8184C4.66227 12.9744 5.80653 12.5 7 12.5ZM17.5 7.5C18.4283 7.5 19.3182 7.86901 19.9746 8.52539C20.631 9.18177 21 10.0717 21 11C21 11.9283 20.631 12.8182 19.9746 13.4746C19.3182 14.131 18.4283 14.5 17.5 14.5C16.5717 14.5 15.6818 14.131 15.0254 13.4746C14.369 12.8182 14 11.9283 14 11C14 10.0717 14.369 9.18177 15.0254 8.52539C15.6818 7.86901 16.5717 7.5 17.5 7.5ZM7 2.5C8.06087 2.5 9.07798 2.92173 9.82812 3.67188C10.5783 4.42202 11 5.43913 11 6.5C11 7.56087 10.5783 8.57798 9.82812 9.32812C9.07798 10.0783 8.06087 10.5 7 10.5C6.47483 10.5 5.95494 10.3962 5.46973 10.1953C4.98442 9.99429 4.54331 9.69956 4.17188 9.32812C3.80044 8.95669 3.50571 8.51558 3.30469 8.03027C3.10376 7.54506 3 7.02517 3 6.5C3 5.97483 3.10376 5.45494 3.30469 4.96973C3.50571 4.48442 3.80044 4.04331 4.17188 3.67188C4.54331 3.30044 4.98442 3.00571 5.46973 2.80469C5.95494 2.60376 6.47483 2.5 7 2.5Z" stroke="#F4F1EA"/>
</svg>
