<svg width="24" height="24" viewBox="0 0 24 24" fill="none" xmlns="http://www.w3.org/2000/svg">
<path d="M22 22H2" stroke="black" stroke-width="1.5" stroke-linecap="round"/>
<path d="M21 22V14.5C21 14.1022 20.842 13.7206 20.5607 13.4393C20.2794 13.158 19.8978 13 19.5 13H16.5C16.1022 13 15.7206 13.158 15.4393 13.4393C15.158 13.7206 15 14.1022 15 14.5V22" stroke="#F2F2F2" stroke-width="1.5"/>
<path d="M15 22V9M9 22V5C9 3.586 9 2.879 9.44 2.44C9.878 2 10.585 2 12 2C13.415 2 14.121 2 14.56 2.44C15 2.878 15 3.585 15 5" stroke="#F2F2F2" stroke-width="1.5" stroke-linecap="round" stroke-linejoin="round"/>
<path d="M9 22V9.5C9 9.10218 8.84196 8.72064 8.56066 8.43934C8.27936 8.15804 7.89782 8 7.5 8H4.5C4.10218 8 3.72064 8.15804 3.43934 8.43934C3.15804 8.72064 3 9.10218 3 9.5V16M3 22V19.75" stroke="#F2F2F2" stroke-width="1.5" stroke-linecap="round"/>
</svg>
